Coordinates
version=1
nRows=4
nColumns=107
inDegrees=yes

Units are S.I. units (second, meters, Newtons, ...)
If the header above contains a line with 'inDegrees', this indicates whether rotational values are in degrees (yes) or radians (no).

endheader
time	sternoclavicular_r2	sternoclavicular_r3	unrotscap_r3	unrotscap_r2	acromioclavicular_r2	acromioclavicular_r3	acromioclavicular_r1	unrothum_r1	unrothum_r3	unrothum_r2	elv_angle	shoulder_elv	shoulder1_r2	shoulder_rot	elbow_flexion	pro_sup	deviation	flexion	proximal_distal_r1	proximal_distal_r3	cmc_flexion	cmc_abduction	mp_flexion	ip_flexion	mcp2_flexion	mcp2_abduction	pm2_flexion	md2_flexion	mcp3_flexion	mcp3_abduction	pm3_flexion	md3_flexion	mcp4_flexion	mcp4_abduction	pm4_flexion	md4_flexion	mcp5_flexion	mcp5_abduction	pm5_flexion	md5_flexion	bicpt_tx	bicpt_ty	bicpt_tz	bicpt2_tx	bicpt2_ty	bicpt2_tz	ptpt_tx	ptpt_ty	ptpt_tz	FCUpt_tx	FCUpt_ty	FCUpt_tz	EDCpt_tx	EDCpt_ty	EDCpt_tz	APLpt_tx	APLpt_ty	APLpt_tz	FPLpt_tx	FPLpt_ty	FPLpt_tz	FPLpt2_tx	FPLpt2_ty	FPLpt2_tz	PEC1pt2_tx	PEC1pt2_ty	PEC1pt2_tz	PEC1pt3_tx	PEC1pt3_ty	PEC1pt3_tz	PEC2pt2_tx	PEC2pt2_ty	PEC2pt2_tz	PEC2pt3_tx	PEC2pt3_ty	PEC2pt3_tz	PEC3pt2_tx	PEC3pt2_ty	PEC3pt2_tz	PEC3pt3_tx	PEC3pt3_ty	PEC3pt3_tz	DELT2pt2a_tx	DELT2pt2a_ty	DELT2pt2a_tz	DELT2pt2_tx	DELT2pt2_ty	DELT2pt2_tz	LAT1pt2_tx	LAT1pt2_ty	LAT1pt2_tz	LAT1pt3_tx	LAT1pt3_ty	LAT1pt3_tz	LAT2pt2_tx	LAT2pt2_ty	LAT2pt2_tz	LAT2pt3_tx	LAT2pt3_ty	LAT2pt3_tz	LAT3pt2_tx	LAT3pt2_ty	LAT3pt2_tz	LAT3pt3_tx	LAT3pt3_ty	LAT3pt3_tz
      0.00000000	     -0.32413869	      0.13728985	     -0.13728985	      0.32413869	     -0.06563149	      0.53041063	      0.23841593	     -0.23841593	     -0.53041063	      0.06563149	     98.33037909	     76.74271688	     -1.71618887	    -20.46463399	     29.20229089	     25.89210799	      0.10597000	     -0.62515789	      0.13462471	     -0.31257894	     -0.74829166	     -4.42447575	    -17.96682730	    -26.49296304	     -0.89855220	     14.15495482	      8.30553043	    -25.75438680	     47.21692828	      9.72597140	     82.26893926	     53.03668343	     32.75593918	     -1.69963890	     93.63402909	     37.62591819	      3.38115688	    -14.17225939	    -11.38979743	      5.08584247	      0.00086592	     -0.03094703	     -0.00483912	      0.01632038	     -0.01813295	     -0.00883654	      0.00563687	     -0.06613706	     -0.00213575	      0.00639059	     -0.18376028	     -0.00021133	     -0.00310705	      0.00083706	      0.00019377	      0.00031233	      0.00012493	      0.00062466	      0.00039978	      0.00119934	      0.00067463	     -0.00002632	      0.00001902	      0.00002282	      0.00251546	      0.00882542	      0.00613942	     -0.00822853	      0.01986785	     -0.01884462	      0.00251546	      0.00882542	      0.00613942	      0.00055425	      0.01841827	     -0.00967812	      0.00396967	      0.00490770	      0.01602053	      0.00000000	      0.00787717	      0.00000000	     -0.00720529	     -0.03329784	     -0.00649563	      0.01404293	     -0.00044625	     -0.00346118	     -0.00089533	      0.01500748	     -0.00613942	      0.00247282	      0.02165852	     -0.01790665	     -0.00601152	      0.01300364	     -0.00549990	     -0.01253465	      0.02745686	     -0.03073975	     -0.02353445	      0.01453849	     -0.00737583	     -0.01560437	      0.03172035	     -0.03841403
      0.03333333	     -0.32509509	      0.13769494	     -0.13769494	      0.32509509	     -0.06582514	      0.53197565	      0.23911939	     -0.23911939	     -0.53197565	      0.06582514	     98.17728264	     76.96915227	     -1.71351683	    -19.47430553	     29.15664815	     25.04336162	      0.11070490	     -0.63553558	      0.14021106	     -0.31776779	     -1.17249701	     -3.32465109	    -18.57688648	    -27.16040356	     -0.15306337	     14.13516985	      7.22324794	    -25.42427566	     46.51497083	      9.67589843	     82.76205712	     52.43779671	     33.59452202	     -1.37342873	     92.68732533	     37.64430696	      3.15148188	    -14.16493810	    -10.28509834	      5.07176550	      0.00086441	     -0.03094180	     -0.00483828	      0.01629059	     -0.01812055	     -0.00890985	      0.00569958	     -0.06609651	     -0.00206738	      0.00630894	     -0.18377444	     -0.00019601	     -0.00300520	      0.00080634	      0.00019318	      0.00031199	      0.00012480	      0.00062399	      0.00039935	      0.00119805	      0.00067391	     -0.00004489	      0.00003007	      0.00003609	      0.00252288	      0.00885146	      0.00615754	     -0.00825281	      0.01992648	     -0.01890022	      0.00252288	      0.00885146	      0.00615754	      0.00055589	      0.01847261	     -0.00970667	      0.00397819	      0.00492218	      0.01604111	      0.00000000	      0.00792405	      0.00000000	     -0.00722655	     -0.03339609	     -0.00653454	      0.01347105	     -0.00041585	     -0.00311789	     -0.00089797	      0.01505176	     -0.00615754	      0.00248012	      0.02172242	     -0.01795948	     -0.00602926	      0.01304201	     -0.00551613	     -0.01257164	      0.02753788	     -0.03083045	     -0.02360389	      0.01458139	     -0.00739760	     -0.01565041	      0.03181394	     -0.03852737
      0.06666667	     -0.32682852	      0.13842913	     -0.13842913	      0.32682852	     -0.06617613	      0.53481218	      0.24039439	     -0.24039439	     -0.53481218	      0.06617613	     97.82097609	     77.37955637	     -1.70729811	    -17.78076234	     29.28415996	     24.66060020	      0.13256201	     -0.59834814	      0.16552284	     -0.29917407	     -1.67387882	     -3.28902524	    -17.84925622	    -27.62812389	     -1.74269461	     14.11089914	      8.97776403	    -27.08497916	     45.27317897	     10.19878067	     83.52489788	     53.67681684	     34.21948879	     -0.74889027	     91.40980535	     39.21595232	      3.75044554	    -14.13761225	    -10.26241448	      5.06124116	      0.00086863	     -0.03095641	     -0.00484063	      0.01627660	     -0.01815519	     -0.00894258	      0.00572786	     -0.06607823	     -0.00203654	      0.00627220	     -0.18378075	     -0.00018893	     -0.00295927	      0.00079256	      0.00019278	      0.00031237	      0.00012495	      0.00062474	      0.00039983	      0.00119950	      0.00067472	     -0.00007035	      0.00004338	      0.00005206	      0.00253633	      0.00889866	      0.00619037	     -0.00829681	      0.02003272	     -0.01900100	      0.00253633	      0.00889866	      0.00619037	      0.00055885	      0.01857111	     -0.00975843	      0.00399357	      0.00494843	      0.01607811	      0.00000000	      0.00800940	      0.00000000	     -0.00726509	     -0.03357416	     -0.00660538	      0.01246270	     -0.00036478	     -0.00256736	     -0.00090276	      0.01513201	     -0.00619037	      0.00249334	      0.02183825	     -0.01805525	     -0.00606140	      0.01311155	     -0.00554554	     -0.01263867	      0.02768471	     -0.03099484	     -0.02372975	      0.01465914	     -0.00743704	     -0.01573386	      0.03198358	     -0.03873280
      0.10000000	     -0.32692125	      0.13846841	     -0.13846841	      0.32692125	     -0.06619490	      0.53496393	      0.24046260	     -0.24046260	     -0.53496393	      0.06619490	     97.82366762	     77.40151300	     -1.70734509	    -17.78271110	     29.28991155	     24.66310844	      0.13257725	     -0.59838986	      0.16553931	     -0.29919493	     -1.67578414	     -3.28794525	    -17.85044394	    -27.62850203	     -1.74329923	     14.11124388	      8.97706149	    -27.08492578	     45.27067155	     10.19869723	     83.52466535	     53.67680979	     34.21926901	     -0.74871872	     91.40984365	     39.21575386	      3.74860397	    -14.13729432	    -10.26294611	      5.06122237	      0.00086882	     -0.03095707	     -0.00484074	      0.01627669	     -0.01815675	     -0.00894237	      0.00572767	     -0.06607835	     -0.00203675	      0.00627244	     -0.18378071	     -0.00018898	     -0.00295957	      0.00079265	      0.00019278	      0.00031237	      0.00012495	      0.00062474	      0.00039983	      0.00119950	      0.00067472	     -0.00007076	      0.00004345	      0.00005215	      0.00253705	      0.00890118	      0.00619213	     -0.00829917	      0.02003841	     -0.01900639	      0.00253705	      0.00890118	      0.00619213	      0.00055901	      0.01857638	     -0.00976120	      0.00399439	      0.00494983	      0.01608008	      0.00000000	      0.00801398	      0.00000000	     -0.00726715	     -0.03358368	     -0.00660918	      0.01246388	     -0.00036483	     -0.00256797	     -0.00090302	      0.01513631	     -0.00619213	      0.00249405	      0.02184445	     -0.01806037	     -0.00606312	      0.01311527	     -0.00554711	     -0.01264226	      0.02769256	     -0.03100363	     -0.02373648	      0.01466330	     -0.00743915	     -0.01573832	      0.03199265	     -0.03874379
